<mxfile host="app.diagrams.net" modified="2023-10-24T09:17:24.142Z" agent="Mozilla/5.0 (Windows NT 10.0; Win64; x64) AppleWebKit/537.36 (KHTML, like Gecko) Chrome/95.0.4638.69 Safari/537.36" etag="P3b4ayza7sHf1UFecbx9" version="22.0.6" type="github">
  <diagram name="第 1 页" id="hhjLr5e594nOxrXJ6LhP">
    <mxGraphModel dx="2365" dy="1673" grid="1" gridSize="10" guides="1" tooltips="1" connect="1" arrows="1" fold="1" page="1" pageScale="1" pageWidth="827" pageHeight="1169" math="0" shadow="0">
      <root>
        <mxCell id="0" />
        <mxCell id="1" parent="0" />
        <mxCell id="_oG-GDEJj469WHXnoz0q-1" value="输入" style="rounded=0;whiteSpace=wrap;html=1;fillColor=#ffe6cc;strokeColor=#d79b00;" vertex="1" parent="1">
          <mxGeometry x="-680" y="-440" width="120" height="60" as="geometry" />
        </mxCell>
        <mxCell id="_oG-GDEJj469WHXnoz0q-2" value="技术或工具" style="rounded=0;whiteSpace=wrap;html=1;fillColor=#ffe6cc;strokeColor=#d79b00;" vertex="1" parent="1">
          <mxGeometry x="-560" y="-440" width="120" height="60" as="geometry" />
        </mxCell>
        <mxCell id="_oG-GDEJj469WHXnoz0q-3" value="输出" style="rounded=0;whiteSpace=wrap;html=1;fillColor=#ffe6cc;strokeColor=#d79b00;" vertex="1" parent="1">
          <mxGeometry x="-440" y="-440" width="120" height="60" as="geometry" />
        </mxCell>
        <mxCell id="_oG-GDEJj469WHXnoz0q-4" value="过程" style="rounded=0;whiteSpace=wrap;html=1;fillColor=#ffe6cc;strokeColor=#d79b00;" vertex="1" parent="1">
          <mxGeometry x="-800" y="-440" width="120" height="60" as="geometry" />
        </mxCell>
        <mxCell id="_oG-GDEJj469WHXnoz0q-5" value="所属分组" style="rounded=0;whiteSpace=wrap;html=1;fillColor=#ffe6cc;strokeColor=#d79b00;" vertex="1" parent="1">
          <mxGeometry x="-320" y="-440" width="120" height="60" as="geometry" />
        </mxCell>
        <mxCell id="_oG-GDEJj469WHXnoz0q-6" value="知识领域" style="rounded=0;whiteSpace=wrap;html=1;fillColor=#ffe6cc;strokeColor=#d79b00;" vertex="1" parent="1">
          <mxGeometry x="-920" y="-440" width="120" height="60" as="geometry" />
        </mxCell>
        <mxCell id="_oG-GDEJj469WHXnoz0q-7" value="&lt;p style=&quot;border-color: var(--border-color); color: rgb(79, 79, 79); font-family: -apple-system, &amp;quot;SF UI Text&amp;quot;, Arial, &amp;quot;PingFang SC&amp;quot;, &amp;quot;Hiragino Sans GB&amp;quot;, &amp;quot;Microsoft YaHei&amp;quot;, &amp;quot;WenQuanYi Micro Hei&amp;quot;, sans-serif, SimHei, SimSun; font-size: 14px; text-align: left; background-color: rgb(255, 255, 255); box-sizing: border-box; outline: 0px; margin: 0px; padding: 0px; overflow: auto hidden; line-height: 22px; overflow-wrap: break-word;&quot;&gt;①项目管理计划&lt;/p&gt;&lt;p style=&quot;border-color: var(--border-color); color: rgb(79, 79, 79); font-family: -apple-system, &amp;quot;SF UI Text&amp;quot;, Arial, &amp;quot;PingFang SC&amp;quot;, &amp;quot;Hiragino Sans GB&amp;quot;, &amp;quot;Microsoft YaHei&amp;quot;, &amp;quot;WenQuanYi Micro Hei&amp;quot;, sans-serif, SimHei, SimSun; font-size: 14px; text-align: left; background-color: rgb(255, 255, 255); box-sizing: border-box; outline: 0px; margin: 0px; padding: 0px; overflow: auto hidden; line-height: 22px; overflow-wrap: break-word;&quot;&gt;②项目章程&lt;/p&gt;&lt;p style=&quot;border-color: var(--border-color); color: rgb(79, 79, 79); font-family: -apple-system, &amp;quot;SF UI Text&amp;quot;, Arial, &amp;quot;PingFang SC&amp;quot;, &amp;quot;Hiragino Sans GB&amp;quot;, &amp;quot;Microsoft YaHei&amp;quot;, &amp;quot;WenQuanYi Micro Hei&amp;quot;, sans-serif, SimHei, SimSun; font-size: 14px; text-align: left; background-color: rgb(255, 255, 255); box-sizing: border-box; outline: 0px; margin: 0px; padding: 0px; overflow: auto hidden; line-height: 22px; overflow-wrap: break-word;&quot;&gt;③事业环境因素&lt;/p&gt;&lt;p style=&quot;border-color: var(--border-color); color: rgb(79, 79, 79); font-family: -apple-system, &amp;quot;SF UI Text&amp;quot;, Arial, &amp;quot;PingFang SC&amp;quot;, &amp;quot;Hiragino Sans GB&amp;quot;, &amp;quot;Microsoft YaHei&amp;quot;, &amp;quot;WenQuanYi Micro Hei&amp;quot;, sans-serif, SimHei, SimSun; font-size: 14px; text-align: left; background-color: rgb(255, 255, 255); box-sizing: border-box; outline: 0px; margin: 0px; padding: 0px; overflow: auto hidden; line-height: 22px; overflow-wrap: break-word;&quot;&gt;④组织过程资产&lt;/p&gt;" style="rounded=0;whiteSpace=wrap;html=1;" vertex="1" parent="1">
          <mxGeometry x="-680" y="-380" width="120" height="110" as="geometry" />
        </mxCell>
        <mxCell id="_oG-GDEJj469WHXnoz0q-8" value="&lt;p style=&quot;border-color: var(--border-color); color: rgb(79, 79, 79); font-family: -apple-system, &amp;quot;SF UI Text&amp;quot;, Arial, &amp;quot;PingFang SC&amp;quot;, &amp;quot;Hiragino Sans GB&amp;quot;, &amp;quot;Microsoft YaHei&amp;quot;, &amp;quot;WenQuanYi Micro Hei&amp;quot;, sans-serif, SimHei, SimSun; font-size: 14px; text-align: left; background-color: rgb(255, 255, 255); box-sizing: border-box; outline: 0px; margin: 0px; padding: 0px; overflow: auto hidden; line-height: 22px; overflow-wrap: break-word;&quot;&gt;①专家判断&lt;/p&gt;&lt;p style=&quot;border-color: var(--border-color); color: rgb(79, 79, 79); font-family: -apple-system, &amp;quot;SF UI Text&amp;quot;, Arial, &amp;quot;PingFang SC&amp;quot;, &amp;quot;Hiragino Sans GB&amp;quot;, &amp;quot;Microsoft YaHei&amp;quot;, &amp;quot;WenQuanYi Micro Hei&amp;quot;, sans-serif, SimHei, SimSun; font-size: 14px; text-align: left; background-color: rgb(255, 255, 255); box-sizing: border-box; outline: 0px; margin: 0px; padding: 0px; overflow: auto hidden; line-height: 22px; overflow-wrap: break-word;&quot;&gt;②会议&lt;/p&gt;" style="rounded=0;whiteSpace=wrap;html=1;" vertex="1" parent="1">
          <mxGeometry x="-560" y="-380" width="120" height="110" as="geometry" />
        </mxCell>
        <mxCell id="_oG-GDEJj469WHXnoz0q-9" value="&lt;p style=&quot;border-color: var(--border-color); color: rgb(79, 79, 79); font-family: -apple-system, &amp;quot;SF UI Text&amp;quot;, Arial, &amp;quot;PingFang SC&amp;quot;, &amp;quot;Hiragino Sans GB&amp;quot;, &amp;quot;Microsoft YaHei&amp;quot;, &amp;quot;WenQuanYi Micro Hei&amp;quot;, sans-serif, SimHei, SimSun; font-size: 14px; text-align: left; background-color: rgb(255, 255, 255); box-sizing: border-box; outline: 0px; margin: 0px; padding: 0px; overflow: auto hidden; line-height: 22px; overflow-wrap: break-word;&quot;&gt;①范围管理计划&lt;/p&gt;&lt;p style=&quot;border-color: var(--border-color); color: rgb(79, 79, 79); font-family: -apple-system, &amp;quot;SF UI Text&amp;quot;, Arial, &amp;quot;PingFang SC&amp;quot;, &amp;quot;Hiragino Sans GB&amp;quot;, &amp;quot;Microsoft YaHei&amp;quot;, &amp;quot;WenQuanYi Micro Hei&amp;quot;, sans-serif, SimHei, SimSun; font-size: 14px; text-align: left; background-color: rgb(255, 255, 255); box-sizing: border-box; outline: 0px; margin: 0px; padding: 0px; overflow: auto hidden; line-height: 22px; overflow-wrap: break-word;&quot;&gt;②需求管理计划&lt;/p&gt;" style="rounded=0;whiteSpace=wrap;html=1;" vertex="1" parent="1">
          <mxGeometry x="-440" y="-380" width="120" height="110" as="geometry" />
        </mxCell>
        <mxCell id="_oG-GDEJj469WHXnoz0q-10" value="&lt;h4 style=&quot;border-color: var(--border-color); box-sizing: border-box; outline: 0px; margin: 24px 0px 8px; padding: 0px; font-family: &amp;quot;PingFang SC&amp;quot;, &amp;quot;Microsoft YaHei&amp;quot;, SimHei, Arial, SimSun; font-size: 18px; color: rgb(79, 79, 79); line-height: 26px; overflow-wrap: break-word; text-align: start; background-color: rgb(255, 255, 255);&quot; id=&quot;1%E3%80%81%E8%A7%84%E5%88%92%E8%8C%83%E5%9B%B4%E7%AE%A1%E7%90%86&quot;&gt;规划范围管理&lt;/h4&gt;" style="rounded=0;whiteSpace=wrap;html=1;verticalAlign=middle;" vertex="1" parent="1">
          <mxGeometry x="-800" y="-380" width="120" height="110" as="geometry" />
        </mxCell>
        <mxCell id="_oG-GDEJj469WHXnoz0q-11" value="&lt;p style=&quot;box-sizing: border-box; outline: 0px; margin: 0px; padding: 0px; font-size: 14px; color: rgb(79, 79, 79); overflow: auto hidden; line-height: 22px; overflow-wrap: break-word; text-align: left; font-family: -apple-system, &amp;quot;SF UI Text&amp;quot;, Arial, &amp;quot;PingFang SC&amp;quot;, &amp;quot;Hiragino Sans GB&amp;quot;, &amp;quot;Microsoft YaHei&amp;quot;, &amp;quot;WenQuanYi Micro Hei&amp;quot;, sans-serif, SimHei, SimSun; background-color: rgb(255, 255, 255);&quot;&gt;①范围管理计划&lt;/p&gt;&lt;p style=&quot;box-sizing: border-box; outline: 0px; margin: 0px; padding: 0px; font-size: 14px; color: rgb(79, 79, 79); overflow: auto hidden; line-height: 22px; overflow-wrap: break-word; text-align: left; font-family: -apple-system, &amp;quot;SF UI Text&amp;quot;, Arial, &amp;quot;PingFang SC&amp;quot;, &amp;quot;Hiragino Sans GB&amp;quot;, &amp;quot;Microsoft YaHei&amp;quot;, &amp;quot;WenQuanYi Micro Hei&amp;quot;, sans-serif, SimHei, SimSun; background-color: rgb(255, 255, 255);&quot;&gt;②需求管理计划&lt;/p&gt;&lt;p style=&quot;box-sizing: border-box; outline: 0px; margin: 0px; padding: 0px; font-size: 14px; color: rgb(79, 79, 79); overflow: auto hidden; line-height: 22px; overflow-wrap: break-word; text-align: left; font-family: -apple-system, &amp;quot;SF UI Text&amp;quot;, Arial, &amp;quot;PingFang SC&amp;quot;, &amp;quot;Hiragino Sans GB&amp;quot;, &amp;quot;Microsoft YaHei&amp;quot;, &amp;quot;WenQuanYi Micro Hei&amp;quot;, sans-serif, SimHei, SimSun; background-color: rgb(255, 255, 255);&quot;&gt;③干系人管理计划&lt;/p&gt;&lt;p style=&quot;box-sizing: border-box; outline: 0px; margin: 0px; padding: 0px; font-size: 14px; color: rgb(79, 79, 79); overflow: auto hidden; line-height: 22px; overflow-wrap: break-word; text-align: left; font-family: -apple-system, &amp;quot;SF UI Text&amp;quot;, Arial, &amp;quot;PingFang SC&amp;quot;, &amp;quot;Hiragino Sans GB&amp;quot;, &amp;quot;Microsoft YaHei&amp;quot;, &amp;quot;WenQuanYi Micro Hei&amp;quot;, sans-serif, SimHei, SimSun; background-color: rgb(255, 255, 255);&quot;&gt;④项目章程&lt;/p&gt;&lt;p style=&quot;box-sizing: border-box; outline: 0px; margin: 0px; padding: 0px; font-size: 14px; color: rgb(79, 79, 79); overflow: auto hidden; line-height: 22px; overflow-wrap: break-word; text-align: left; font-family: -apple-system, &amp;quot;SF UI Text&amp;quot;, Arial, &amp;quot;PingFang SC&amp;quot;, &amp;quot;Hiragino Sans GB&amp;quot;, &amp;quot;Microsoft YaHei&amp;quot;, &amp;quot;WenQuanYi Micro Hei&amp;quot;, sans-serif, SimHei, SimSun; background-color: rgb(255, 255, 255);&quot;&gt;⑤干系人登记册&lt;/p&gt;" style="rounded=0;whiteSpace=wrap;html=1;" vertex="1" parent="1">
          <mxGeometry x="-680" y="-270" width="120" height="240" as="geometry" />
        </mxCell>
        <mxCell id="_oG-GDEJj469WHXnoz0q-12" value="&lt;p style=&quot;box-sizing: border-box; outline: 0px; margin: 0px; padding: 0px; font-size: 14px; color: rgb(79, 79, 79); overflow: auto hidden; line-height: 22px; overflow-wrap: break-word; text-align: left; font-family: -apple-system, &amp;quot;SF UI Text&amp;quot;, Arial, &amp;quot;PingFang SC&amp;quot;, &amp;quot;Hiragino Sans GB&amp;quot;, &amp;quot;Microsoft YaHei&amp;quot;, &amp;quot;WenQuanYi Micro Hei&amp;quot;, sans-serif, SimHei, SimSun; background-color: rgb(255, 255, 255);&quot;&gt;①访谈&lt;/p&gt;&lt;p style=&quot;box-sizing: border-box; outline: 0px; margin: 0px; padding: 0px; font-size: 14px; color: rgb(79, 79, 79); overflow: auto hidden; line-height: 22px; overflow-wrap: break-word; text-align: left; font-family: -apple-system, &amp;quot;SF UI Text&amp;quot;, Arial, &amp;quot;PingFang SC&amp;quot;, &amp;quot;Hiragino Sans GB&amp;quot;, &amp;quot;Microsoft YaHei&amp;quot;, &amp;quot;WenQuanYi Micro Hei&amp;quot;, sans-serif, SimHei, SimSun; background-color: rgb(255, 255, 255);&quot;&gt;②焦点小组&lt;/p&gt;&lt;p style=&quot;box-sizing: border-box; outline: 0px; margin: 0px; padding: 0px; font-size: 14px; color: rgb(79, 79, 79); overflow: auto hidden; line-height: 22px; overflow-wrap: break-word; text-align: left; font-family: -apple-system, &amp;quot;SF UI Text&amp;quot;, Arial, &amp;quot;PingFang SC&amp;quot;, &amp;quot;Hiragino Sans GB&amp;quot;, &amp;quot;Microsoft YaHei&amp;quot;, &amp;quot;WenQuanYi Micro Hei&amp;quot;, sans-serif, SimHei, SimSun; background-color: rgb(255, 255, 255);&quot;&gt;③引导式研讨会&lt;/p&gt;&lt;p style=&quot;box-sizing: border-box; outline: 0px; margin: 0px; padding: 0px; font-size: 14px; color: rgb(79, 79, 79); overflow: auto hidden; line-height: 22px; overflow-wrap: break-word; text-align: left; font-family: -apple-system, &amp;quot;SF UI Text&amp;quot;, Arial, &amp;quot;PingFang SC&amp;quot;, &amp;quot;Hiragino Sans GB&amp;quot;, &amp;quot;Microsoft YaHei&amp;quot;, &amp;quot;WenQuanYi Micro Hei&amp;quot;, sans-serif, SimHei, SimSun; background-color: rgb(255, 255, 255);&quot;&gt;④群体创新技术&lt;/p&gt;&lt;p style=&quot;box-sizing: border-box; outline: 0px; margin: 0px; padding: 0px; font-size: 14px; color: rgb(79, 79, 79); overflow: auto hidden; line-height: 22px; overflow-wrap: break-word; text-align: left; font-family: -apple-system, &amp;quot;SF UI Text&amp;quot;, Arial, &amp;quot;PingFang SC&amp;quot;, &amp;quot;Hiragino Sans GB&amp;quot;, &amp;quot;Microsoft YaHei&amp;quot;, &amp;quot;WenQuanYi Micro Hei&amp;quot;, sans-serif, SimHei, SimSun; background-color: rgb(255, 255, 255);&quot;&gt;⑤群体决策技术&lt;/p&gt;&lt;p style=&quot;box-sizing: border-box; outline: 0px; margin: 0px; padding: 0px; font-size: 14px; color: rgb(79, 79, 79); overflow: auto hidden; line-height: 22px; overflow-wrap: break-word; text-align: left; font-family: -apple-system, &amp;quot;SF UI Text&amp;quot;, Arial, &amp;quot;PingFang SC&amp;quot;, &amp;quot;Hiragino Sans GB&amp;quot;, &amp;quot;Microsoft YaHei&amp;quot;, &amp;quot;WenQuanYi Micro Hei&amp;quot;, sans-serif, SimHei, SimSun; background-color: rgb(255, 255, 255);&quot;&gt;⑥问卷调查&lt;/p&gt;&lt;p style=&quot;box-sizing: border-box; outline: 0px; margin: 0px; padding: 0px; font-size: 14px; color: rgb(79, 79, 79); overflow: auto hidden; line-height: 22px; overflow-wrap: break-word; text-align: left; font-family: -apple-system, &amp;quot;SF UI Text&amp;quot;, Arial, &amp;quot;PingFang SC&amp;quot;, &amp;quot;Hiragino Sans GB&amp;quot;, &amp;quot;Microsoft YaHei&amp;quot;, &amp;quot;WenQuanYi Micro Hei&amp;quot;, sans-serif, SimHei, SimSun; background-color: rgb(255, 255, 255);&quot;&gt;⑦观察&lt;/p&gt;&lt;p style=&quot;box-sizing: border-box; outline: 0px; margin: 0px; padding: 0px; font-size: 14px; color: rgb(79, 79, 79); overflow: auto hidden; line-height: 22px; overflow-wrap: break-word; text-align: left; font-family: -apple-system, &amp;quot;SF UI Text&amp;quot;, Arial, &amp;quot;PingFang SC&amp;quot;, &amp;quot;Hiragino Sans GB&amp;quot;, &amp;quot;Microsoft YaHei&amp;quot;, &amp;quot;WenQuanYi Micro Hei&amp;quot;, sans-serif, SimHei, SimSun; background-color: rgb(255, 255, 255);&quot;&gt;⑧原型法&lt;/p&gt;&lt;p style=&quot;box-sizing: border-box; outline: 0px; margin: 0px; padding: 0px; font-size: 14px; color: rgb(79, 79, 79); overflow: auto hidden; line-height: 22px; overflow-wrap: break-word; text-align: left; font-family: -apple-system, &amp;quot;SF UI Text&amp;quot;, Arial, &amp;quot;PingFang SC&amp;quot;, &amp;quot;Hiragino Sans GB&amp;quot;, &amp;quot;Microsoft YaHei&amp;quot;, &amp;quot;WenQuanYi Micro Hei&amp;quot;, sans-serif, SimHei, SimSun; background-color: rgb(255, 255, 255);&quot;&gt;⑨标杆对照&lt;/p&gt;&lt;p style=&quot;box-sizing: border-box; outline: 0px; margin: 0px; padding: 0px; font-size: 14px; color: rgb(79, 79, 79); overflow: auto hidden; line-height: 22px; overflow-wrap: break-word; text-align: left; font-family: -apple-system, &amp;quot;SF UI Text&amp;quot;, Arial, &amp;quot;PingFang SC&amp;quot;, &amp;quot;Hiragino Sans GB&amp;quot;, &amp;quot;Microsoft YaHei&amp;quot;, &amp;quot;WenQuanYi Micro Hei&amp;quot;, sans-serif, SimHei, SimSun; background-color: rgb(255, 255, 255);&quot;&gt;⑩系统交互图&lt;/p&gt;&lt;p style=&quot;box-sizing: border-box; outline: 0px; margin: 0px; padding: 0px; font-size: 14px; color: rgb(79, 79, 79); overflow: auto hidden; line-height: 22px; overflow-wrap: break-word; text-align: left; font-family: -apple-system, &amp;quot;SF UI Text&amp;quot;, Arial, &amp;quot;PingFang SC&amp;quot;, &amp;quot;Hiragino Sans GB&amp;quot;, &amp;quot;Microsoft YaHei&amp;quot;, &amp;quot;WenQuanYi Micro Hei&amp;quot;, sans-serif, SimHei, SimSun; background-color: rgb(255, 255, 255);&quot;&gt;⑪文件分析&lt;/p&gt;" style="rounded=0;whiteSpace=wrap;html=1;" vertex="1" parent="1">
          <mxGeometry x="-560" y="-270" width="120" height="240" as="geometry" />
        </mxCell>
        <mxCell id="_oG-GDEJj469WHXnoz0q-13" value="&lt;p style=&quot;box-sizing: border-box; outline: 0px; margin: 0px; padding: 0px; font-size: 14px; color: rgb(79, 79, 79); overflow: auto hidden; line-height: 22px; overflow-wrap: break-word; text-align: left; font-family: -apple-system, &amp;quot;SF UI Text&amp;quot;, Arial, &amp;quot;PingFang SC&amp;quot;, &amp;quot;Hiragino Sans GB&amp;quot;, &amp;quot;Microsoft YaHei&amp;quot;, &amp;quot;WenQuanYi Micro Hei&amp;quot;, sans-serif, SimHei, SimSun; background-color: rgb(255, 255, 255);&quot;&gt;①需求文件&lt;/p&gt;&lt;p style=&quot;box-sizing: border-box; outline: 0px; margin: 0px; padding: 0px; font-size: 14px; color: rgb(79, 79, 79); overflow: auto hidden; line-height: 22px; overflow-wrap: break-word; text-align: left; font-family: -apple-system, &amp;quot;SF UI Text&amp;quot;, Arial, &amp;quot;PingFang SC&amp;quot;, &amp;quot;Hiragino Sans GB&amp;quot;, &amp;quot;Microsoft YaHei&amp;quot;, &amp;quot;WenQuanYi Micro Hei&amp;quot;, sans-serif, SimHei, SimSun; background-color: rgb(255, 255, 255);&quot;&gt;②需求跟踪矩阵&lt;/p&gt;" style="rounded=0;whiteSpace=wrap;html=1;" vertex="1" parent="1">
          <mxGeometry x="-440" y="-270" width="120" height="240" as="geometry" />
        </mxCell>
        <mxCell id="_oG-GDEJj469WHXnoz0q-14" value="&lt;h4 style=&quot;border-color: var(--border-color); box-sizing: border-box; outline: 0px; margin: 24px 0px 8px; padding: 0px; font-family: &amp;quot;PingFang SC&amp;quot;, &amp;quot;Microsoft YaHei&amp;quot;, SimHei, Arial, SimSun; font-size: 18px; color: rgb(79, 79, 79); line-height: 26px; overflow-wrap: break-word; text-align: start; background-color: rgb(255, 255, 255);&quot; id=&quot;1%E3%80%81%E8%A7%84%E5%88%92%E8%8C%83%E5%9B%B4%E7%AE%A1%E7%90%86&quot;&gt;收集需求&lt;/h4&gt;" style="rounded=0;whiteSpace=wrap;html=1;verticalAlign=middle;" vertex="1" parent="1">
          <mxGeometry x="-800" y="-270" width="120" height="240" as="geometry" />
        </mxCell>
        <mxCell id="_oG-GDEJj469WHXnoz0q-15" value="&lt;p style=&quot;box-sizing: border-box; outline: 0px; margin: 0px; padding: 0px; font-size: 14px; color: rgb(79, 79, 79); overflow: auto hidden; line-height: 22px; overflow-wrap: break-word; text-align: left; font-family: -apple-system, &amp;quot;SF UI Text&amp;quot;, Arial, &amp;quot;PingFang SC&amp;quot;, &amp;quot;Hiragino Sans GB&amp;quot;, &amp;quot;Microsoft YaHei&amp;quot;, &amp;quot;WenQuanYi Micro Hei&amp;quot;, sans-serif, SimHei, SimSun; background-color: rgb(255, 255, 255);&quot;&gt;①范围管理计划&lt;/p&gt;&lt;p style=&quot;box-sizing: border-box; outline: 0px; margin: 0px; padding: 0px; font-size: 14px; color: rgb(79, 79, 79); overflow: auto hidden; line-height: 22px; overflow-wrap: break-word; text-align: left; font-family: -apple-system, &amp;quot;SF UI Text&amp;quot;, Arial, &amp;quot;PingFang SC&amp;quot;, &amp;quot;Hiragino Sans GB&amp;quot;, &amp;quot;Microsoft YaHei&amp;quot;, &amp;quot;WenQuanYi Micro Hei&amp;quot;, sans-serif, SimHei, SimSun; background-color: rgb(255, 255, 255);&quot;&gt;②项目章程&lt;/p&gt;&lt;p style=&quot;box-sizing: border-box; outline: 0px; margin: 0px; padding: 0px; font-size: 14px; color: rgb(79, 79, 79); overflow: auto hidden; line-height: 22px; overflow-wrap: break-word; text-align: left; font-family: -apple-system, &amp;quot;SF UI Text&amp;quot;, Arial, &amp;quot;PingFang SC&amp;quot;, &amp;quot;Hiragino Sans GB&amp;quot;, &amp;quot;Microsoft YaHei&amp;quot;, &amp;quot;WenQuanYi Micro Hei&amp;quot;, sans-serif, SimHei, SimSun; background-color: rgb(255, 255, 255);&quot;&gt;③需求文件&lt;/p&gt;&lt;p style=&quot;box-sizing: border-box; outline: 0px; margin: 0px; padding: 0px; font-size: 14px; color: rgb(79, 79, 79); overflow: auto hidden; line-height: 22px; overflow-wrap: break-word; text-align: left; font-family: -apple-system, &amp;quot;SF UI Text&amp;quot;, Arial, &amp;quot;PingFang SC&amp;quot;, &amp;quot;Hiragino Sans GB&amp;quot;, &amp;quot;Microsoft YaHei&amp;quot;, &amp;quot;WenQuanYi Micro Hei&amp;quot;, sans-serif, SimHei, SimSun; background-color: rgb(255, 255, 255);&quot;&gt;④组织过程资产&lt;/p&gt;" style="rounded=0;whiteSpace=wrap;html=1;" vertex="1" parent="1">
          <mxGeometry x="-680" y="-30" width="120" height="90" as="geometry" />
        </mxCell>
        <mxCell id="_oG-GDEJj469WHXnoz0q-16" value="&lt;p style=&quot;box-sizing: border-box; outline: 0px; margin: 0px; padding: 0px; font-size: 14px; color: rgb(79, 79, 79); overflow: auto hidden; line-height: 22px; overflow-wrap: break-word; text-align: left; font-family: -apple-system, &amp;quot;SF UI Text&amp;quot;, Arial, &amp;quot;PingFang SC&amp;quot;, &amp;quot;Hiragino Sans GB&amp;quot;, &amp;quot;Microsoft YaHei&amp;quot;, &amp;quot;WenQuanYi Micro Hei&amp;quot;, sans-serif, SimHei, SimSun; background-color: rgb(255, 255, 255);&quot;&gt;①专家判断&lt;/p&gt;&lt;p style=&quot;box-sizing: border-box; outline: 0px; margin: 0px; padding: 0px; font-size: 14px; color: rgb(79, 79, 79); overflow: auto hidden; line-height: 22px; overflow-wrap: break-word; text-align: left; font-family: -apple-system, &amp;quot;SF UI Text&amp;quot;, Arial, &amp;quot;PingFang SC&amp;quot;, &amp;quot;Hiragino Sans GB&amp;quot;, &amp;quot;Microsoft YaHei&amp;quot;, &amp;quot;WenQuanYi Micro Hei&amp;quot;, sans-serif, SimHei, SimSun; background-color: rgb(255, 255, 255);&quot;&gt;②产品分析&lt;/p&gt;&lt;p style=&quot;box-sizing: border-box; outline: 0px; margin: 0px; padding: 0px; font-size: 14px; color: rgb(79, 79, 79); overflow: auto hidden; line-height: 22px; overflow-wrap: break-word; text-align: left; font-family: -apple-system, &amp;quot;SF UI Text&amp;quot;, Arial, &amp;quot;PingFang SC&amp;quot;, &amp;quot;Hiragino Sans GB&amp;quot;, &amp;quot;Microsoft YaHei&amp;quot;, &amp;quot;WenQuanYi Micro Hei&amp;quot;, sans-serif, SimHei, SimSun; background-color: rgb(255, 255, 255);&quot;&gt;③备选方案生成&lt;/p&gt;&lt;p style=&quot;box-sizing: border-box; outline: 0px; margin: 0px; padding: 0px; font-size: 14px; color: rgb(79, 79, 79); overflow: auto hidden; line-height: 22px; overflow-wrap: break-word; text-align: left; font-family: -apple-system, &amp;quot;SF UI Text&amp;quot;, Arial, &amp;quot;PingFang SC&amp;quot;, &amp;quot;Hiragino Sans GB&amp;quot;, &amp;quot;Microsoft YaHei&amp;quot;, &amp;quot;WenQuanYi Micro Hei&amp;quot;, sans-serif, SimHei, SimSun; background-color: rgb(255, 255, 255);&quot;&gt;④引导式研讨会&lt;/p&gt;" style="rounded=0;whiteSpace=wrap;html=1;" vertex="1" parent="1">
          <mxGeometry x="-560" y="-30" width="120" height="90" as="geometry" />
        </mxCell>
        <mxCell id="_oG-GDEJj469WHXnoz0q-17" value="&lt;p style=&quot;box-sizing: border-box; outline: 0px; margin: 0px; padding: 0px; font-size: 14px; color: rgb(79, 79, 79); overflow: auto hidden; line-height: 22px; overflow-wrap: break-word; text-align: left; font-family: -apple-system, &amp;quot;SF UI Text&amp;quot;, Arial, &amp;quot;PingFang SC&amp;quot;, &amp;quot;Hiragino Sans GB&amp;quot;, &amp;quot;Microsoft YaHei&amp;quot;, &amp;quot;WenQuanYi Micro Hei&amp;quot;, sans-serif, SimHei, SimSun; background-color: rgb(255, 255, 255);&quot;&gt;①项目范围说明书&lt;/p&gt;&lt;p style=&quot;box-sizing: border-box; outline: 0px; margin: 0px; padding: 0px; font-size: 14px; color: rgb(79, 79, 79); overflow: auto hidden; line-height: 22px; overflow-wrap: break-word; text-align: left; font-family: -apple-system, &amp;quot;SF UI Text&amp;quot;, Arial, &amp;quot;PingFang SC&amp;quot;, &amp;quot;Hiragino Sans GB&amp;quot;, &amp;quot;Microsoft YaHei&amp;quot;, &amp;quot;WenQuanYi Micro Hei&amp;quot;, sans-serif, SimHei, SimSun; background-color: rgb(255, 255, 255);&quot;&gt;②项目文件更新&lt;/p&gt;" style="rounded=0;whiteSpace=wrap;html=1;" vertex="1" parent="1">
          <mxGeometry x="-440" y="-30" width="120" height="90" as="geometry" />
        </mxCell>
        <mxCell id="_oG-GDEJj469WHXnoz0q-18" value="&lt;h4 style=&quot;border-color: var(--border-color); box-sizing: border-box; outline: 0px; margin: 24px 0px 8px; padding: 0px; font-family: &amp;quot;PingFang SC&amp;quot;, &amp;quot;Microsoft YaHei&amp;quot;, SimHei, Arial, SimSun; font-size: 18px; color: rgb(79, 79, 79); line-height: 26px; overflow-wrap: break-word; text-align: start; background-color: rgb(255, 255, 255);&quot; id=&quot;1%E3%80%81%E8%A7%84%E5%88%92%E8%8C%83%E5%9B%B4%E7%AE%A1%E7%90%86&quot;&gt;定义范围&lt;/h4&gt;" style="rounded=0;whiteSpace=wrap;html=1;" vertex="1" parent="1">
          <mxGeometry x="-800" y="-30" width="120" height="90" as="geometry" />
        </mxCell>
        <mxCell id="_oG-GDEJj469WHXnoz0q-19" value="&lt;p style=&quot;box-sizing: border-box; outline: 0px; margin: 0px; padding: 0px; font-size: 14px; color: rgb(79, 79, 79); overflow: auto hidden; line-height: 22px; overflow-wrap: break-word; text-align: left; font-family: -apple-system, &amp;quot;SF UI Text&amp;quot;, Arial, &amp;quot;PingFang SC&amp;quot;, &amp;quot;Hiragino Sans GB&amp;quot;, &amp;quot;Microsoft YaHei&amp;quot;, &amp;quot;WenQuanYi Micro Hei&amp;quot;, sans-serif, SimHei, SimSun; background-color: rgb(255, 255, 255);&quot;&gt;①范围管理计划&lt;/p&gt;&lt;p style=&quot;box-sizing: border-box; outline: 0px; margin: 0px; padding: 0px; font-size: 14px; color: rgb(79, 79, 79); overflow: auto hidden; line-height: 22px; overflow-wrap: break-word; text-align: left; font-family: -apple-system, &amp;quot;SF UI Text&amp;quot;, Arial, &amp;quot;PingFang SC&amp;quot;, &amp;quot;Hiragino Sans GB&amp;quot;, &amp;quot;Microsoft YaHei&amp;quot;, &amp;quot;WenQuanYi Micro Hei&amp;quot;, sans-serif, SimHei, SimSun; background-color: rgb(255, 255, 255);&quot;&gt;②项目范围说明书&lt;/p&gt;&lt;p style=&quot;box-sizing: border-box; outline: 0px; margin: 0px; padding: 0px; font-size: 14px; color: rgb(79, 79, 79); overflow: auto hidden; line-height: 22px; overflow-wrap: break-word; text-align: left; font-family: -apple-system, &amp;quot;SF UI Text&amp;quot;, Arial, &amp;quot;PingFang SC&amp;quot;, &amp;quot;Hiragino Sans GB&amp;quot;, &amp;quot;Microsoft YaHei&amp;quot;, &amp;quot;WenQuanYi Micro Hei&amp;quot;, sans-serif, SimHei, SimSun; background-color: rgb(255, 255, 255);&quot;&gt;③需求文件&lt;/p&gt;&lt;p style=&quot;box-sizing: border-box; outline: 0px; margin: 0px; padding: 0px; font-size: 14px; color: rgb(79, 79, 79); overflow: auto hidden; line-height: 22px; overflow-wrap: break-word; text-align: left; font-family: -apple-system, &amp;quot;SF UI Text&amp;quot;, Arial, &amp;quot;PingFang SC&amp;quot;, &amp;quot;Hiragino Sans GB&amp;quot;, &amp;quot;Microsoft YaHei&amp;quot;, &amp;quot;WenQuanYi Micro Hei&amp;quot;, sans-serif, SimHei, SimSun; background-color: rgb(255, 255, 255);&quot;&gt;④事业环境因素&lt;/p&gt;&lt;p style=&quot;box-sizing: border-box; outline: 0px; margin: 0px; padding: 0px; font-size: 14px; color: rgb(79, 79, 79); overflow: auto hidden; line-height: 22px; overflow-wrap: break-word; text-align: left; font-family: -apple-system, &amp;quot;SF UI Text&amp;quot;, Arial, &amp;quot;PingFang SC&amp;quot;, &amp;quot;Hiragino Sans GB&amp;quot;, &amp;quot;Microsoft YaHei&amp;quot;, &amp;quot;WenQuanYi Micro Hei&amp;quot;, sans-serif, SimHei, SimSun; background-color: rgb(255, 255, 255);&quot;&gt;⑤组织过程资产&lt;/p&gt;" style="rounded=0;whiteSpace=wrap;html=1;" vertex="1" parent="1">
          <mxGeometry x="-680" y="60" width="120" height="110" as="geometry" />
        </mxCell>
        <mxCell id="_oG-GDEJj469WHXnoz0q-20" value="&lt;p style=&quot;box-sizing: border-box; outline: 0px; margin: 0px; padding: 0px; font-size: 14px; color: rgb(79, 79, 79); overflow: auto hidden; line-height: 22px; overflow-wrap: break-word; text-align: left; font-family: -apple-system, &amp;quot;SF UI Text&amp;quot;, Arial, &amp;quot;PingFang SC&amp;quot;, &amp;quot;Hiragino Sans GB&amp;quot;, &amp;quot;Microsoft YaHei&amp;quot;, &amp;quot;WenQuanYi Micro Hei&amp;quot;, sans-serif, SimHei, SimSun; background-color: rgb(255, 255, 255);&quot;&gt;①分解&lt;/p&gt;&lt;p style=&quot;box-sizing: border-box; outline: 0px; margin: 0px; padding: 0px; font-size: 14px; color: rgb(79, 79, 79); overflow: auto hidden; line-height: 22px; overflow-wrap: break-word; text-align: left; font-family: -apple-system, &amp;quot;SF UI Text&amp;quot;, Arial, &amp;quot;PingFang SC&amp;quot;, &amp;quot;Hiragino Sans GB&amp;quot;, &amp;quot;Microsoft YaHei&amp;quot;, &amp;quot;WenQuanYi Micro Hei&amp;quot;, sans-serif, SimHei, SimSun; background-color: rgb(255, 255, 255);&quot;&gt;②专家判断&lt;/p&gt;" style="rounded=0;whiteSpace=wrap;html=1;" vertex="1" parent="1">
          <mxGeometry x="-560" y="60" width="120" height="110" as="geometry" />
        </mxCell>
        <mxCell id="_oG-GDEJj469WHXnoz0q-21" value="&lt;p style=&quot;box-sizing: border-box; outline: 0px; margin: 0px; padding: 0px; font-size: 14px; color: rgb(79, 79, 79); overflow: auto hidden; line-height: 22px; overflow-wrap: break-word; text-align: left; font-family: -apple-system, &amp;quot;SF UI Text&amp;quot;, Arial, &amp;quot;PingFang SC&amp;quot;, &amp;quot;Hiragino Sans GB&amp;quot;, &amp;quot;Microsoft YaHei&amp;quot;, &amp;quot;WenQuanYi Micro Hei&amp;quot;, sans-serif, SimHei, SimSun; background-color: rgb(255, 255, 255);&quot;&gt;①范围基准&lt;/p&gt;&lt;p style=&quot;box-sizing: border-box; outline: 0px; margin: 0px; padding: 0px; font-size: 14px; color: rgb(79, 79, 79); overflow: auto hidden; line-height: 22px; overflow-wrap: break-word; text-align: left; font-family: -apple-system, &amp;quot;SF UI Text&amp;quot;, Arial, &amp;quot;PingFang SC&amp;quot;, &amp;quot;Hiragino Sans GB&amp;quot;, &amp;quot;Microsoft YaHei&amp;quot;, &amp;quot;WenQuanYi Micro Hei&amp;quot;, sans-serif, SimHei, SimSun; background-color: rgb(255, 255, 255);&quot;&gt;②项目文件更新&lt;/p&gt;" style="rounded=0;whiteSpace=wrap;html=1;" vertex="1" parent="1">
          <mxGeometry x="-440" y="60" width="120" height="110" as="geometry" />
        </mxCell>
        <mxCell id="_oG-GDEJj469WHXnoz0q-22" value="&lt;h4 style=&quot;border-color: var(--border-color); box-sizing: border-box; outline: 0px; margin: 24px 0px 8px; padding: 0px; font-family: &amp;quot;PingFang SC&amp;quot;, &amp;quot;Microsoft YaHei&amp;quot;, SimHei, Arial, SimSun; font-size: 18px; color: rgb(79, 79, 79); line-height: 26px; overflow-wrap: break-word; text-align: start; background-color: rgb(255, 255, 255);&quot; id=&quot;1%E3%80%81%E8%A7%84%E5%88%92%E8%8C%83%E5%9B%B4%E7%AE%A1%E7%90%86&quot;&gt;创建工作分解&lt;/h4&gt;" style="rounded=0;whiteSpace=wrap;html=1;" vertex="1" parent="1">
          <mxGeometry x="-800" y="60" width="120" height="110" as="geometry" />
        </mxCell>
        <mxCell id="_oG-GDEJj469WHXnoz0q-23" value="&lt;p style=&quot;box-sizing: border-box; outline: 0px; margin: 0px; padding: 0px; font-size: 14px; color: rgb(79, 79, 79); overflow: auto hidden; line-height: 22px; overflow-wrap: break-word; text-align: left; font-family: -apple-system, &amp;quot;SF UI Text&amp;quot;, Arial, &amp;quot;PingFang SC&amp;quot;, &amp;quot;Hiragino Sans GB&amp;quot;, &amp;quot;Microsoft YaHei&amp;quot;, &amp;quot;WenQuanYi Micro Hei&amp;quot;, sans-serif, SimHei, SimSun; background-color: rgb(255, 255, 255);&quot;&gt;①项目管理计划&lt;/p&gt;&lt;p style=&quot;box-sizing: border-box; outline: 0px; margin: 0px; padding: 0px; font-size: 14px; color: rgb(79, 79, 79); overflow: auto hidden; line-height: 22px; overflow-wrap: break-word; text-align: left; font-family: -apple-system, &amp;quot;SF UI Text&amp;quot;, Arial, &amp;quot;PingFang SC&amp;quot;, &amp;quot;Hiragino Sans GB&amp;quot;, &amp;quot;Microsoft YaHei&amp;quot;, &amp;quot;WenQuanYi Micro Hei&amp;quot;, sans-serif, SimHei, SimSun; background-color: rgb(255, 255, 255);&quot;&gt;②需求文件&lt;/p&gt;&lt;p style=&quot;box-sizing: border-box; outline: 0px; margin: 0px; padding: 0px; font-size: 14px; color: rgb(79, 79, 79); overflow: auto hidden; line-height: 22px; overflow-wrap: break-word; text-align: left; font-family: -apple-system, &amp;quot;SF UI Text&amp;quot;, Arial, &amp;quot;PingFang SC&amp;quot;, &amp;quot;Hiragino Sans GB&amp;quot;, &amp;quot;Microsoft YaHei&amp;quot;, &amp;quot;WenQuanYi Micro Hei&amp;quot;, sans-serif, SimHei, SimSun; background-color: rgb(255, 255, 255);&quot;&gt;③需求跟踪矩阵&lt;/p&gt;&lt;p style=&quot;box-sizing: border-box; outline: 0px; margin: 0px; padding: 0px; font-size: 14px; color: rgb(79, 79, 79); overflow: auto hidden; line-height: 22px; overflow-wrap: break-word; text-align: left; font-family: -apple-system, &amp;quot;SF UI Text&amp;quot;, Arial, &amp;quot;PingFang SC&amp;quot;, &amp;quot;Hiragino Sans GB&amp;quot;, &amp;quot;Microsoft YaHei&amp;quot;, &amp;quot;WenQuanYi Micro Hei&amp;quot;, sans-serif, SimHei, SimSun; background-color: rgb(255, 255, 255);&quot;&gt;④核实的可交付成果&lt;/p&gt;&lt;p style=&quot;box-sizing: border-box; outline: 0px; margin: 0px; padding: 0px; font-size: 14px; color: rgb(79, 79, 79); overflow: auto hidden; line-height: 22px; overflow-wrap: break-word; text-align: left; font-family: -apple-system, &amp;quot;SF UI Text&amp;quot;, Arial, &amp;quot;PingFang SC&amp;quot;, &amp;quot;Hiragino Sans GB&amp;quot;, &amp;quot;Microsoft YaHei&amp;quot;, &amp;quot;WenQuanYi Micro Hei&amp;quot;, sans-serif, SimHei, SimSun; background-color: rgb(255, 255, 255);&quot;&gt;⑤工作绩效数据&lt;/p&gt;" style="rounded=0;whiteSpace=wrap;html=1;" vertex="1" parent="1">
          <mxGeometry x="-680" y="170" width="120" height="140" as="geometry" />
        </mxCell>
        <mxCell id="_oG-GDEJj469WHXnoz0q-24" value="&lt;p style=&quot;box-sizing: border-box; outline: 0px; margin: 0px; padding: 0px; font-size: 14px; color: rgb(79, 79, 79); overflow: auto hidden; line-height: 22px; overflow-wrap: break-word; text-align: left; font-family: -apple-system, &amp;quot;SF UI Text&amp;quot;, Arial, &amp;quot;PingFang SC&amp;quot;, &amp;quot;Hiragino Sans GB&amp;quot;, &amp;quot;Microsoft YaHei&amp;quot;, &amp;quot;WenQuanYi Micro Hei&amp;quot;, sans-serif, SimHei, SimSun; background-color: rgb(255, 255, 255);&quot;&gt;①检查&lt;/p&gt;&lt;p style=&quot;box-sizing: border-box; outline: 0px; margin: 0px; padding: 0px; font-size: 14px; color: rgb(79, 79, 79); overflow: auto hidden; line-height: 22px; overflow-wrap: break-word; text-align: left; font-family: -apple-system, &amp;quot;SF UI Text&amp;quot;, Arial, &amp;quot;PingFang SC&amp;quot;, &amp;quot;Hiragino Sans GB&amp;quot;, &amp;quot;Microsoft YaHei&amp;quot;, &amp;quot;WenQuanYi Micro Hei&amp;quot;, sans-serif, SimHei, SimSun; background-color: rgb(255, 255, 255);&quot;&gt;②群体决策技术&lt;/p&gt;" style="rounded=0;whiteSpace=wrap;html=1;" vertex="1" parent="1">
          <mxGeometry x="-560" y="170" width="120" height="140" as="geometry" />
        </mxCell>
        <mxCell id="_oG-GDEJj469WHXnoz0q-25" value="&lt;p style=&quot;box-sizing: border-box; outline: 0px; margin: 0px; padding: 0px; font-size: 14px; color: rgb(79, 79, 79); overflow: auto hidden; line-height: 22px; overflow-wrap: break-word; text-align: left; font-family: -apple-system, &amp;quot;SF UI Text&amp;quot;, Arial, &amp;quot;PingFang SC&amp;quot;, &amp;quot;Hiragino Sans GB&amp;quot;, &amp;quot;Microsoft YaHei&amp;quot;, &amp;quot;WenQuanYi Micro Hei&amp;quot;, sans-serif, SimHei, SimSun; background-color: rgb(255, 255, 255);&quot;&gt;①验收的可交付成果&lt;/p&gt;&lt;p style=&quot;box-sizing: border-box; outline: 0px; margin: 0px; padding: 0px; font-size: 14px; color: rgb(79, 79, 79); overflow: auto hidden; line-height: 22px; overflow-wrap: break-word; text-align: left; font-family: -apple-system, &amp;quot;SF UI Text&amp;quot;, Arial, &amp;quot;PingFang SC&amp;quot;, &amp;quot;Hiragino Sans GB&amp;quot;, &amp;quot;Microsoft YaHei&amp;quot;, &amp;quot;WenQuanYi Micro Hei&amp;quot;, sans-serif, SimHei, SimSun; background-color: rgb(255, 255, 255);&quot;&gt;②变更请求&lt;/p&gt;&lt;p style=&quot;box-sizing: border-box; outline: 0px; margin: 0px; padding: 0px; font-size: 14px; color: rgb(79, 79, 79); overflow: auto hidden; line-height: 22px; overflow-wrap: break-word; text-align: left; font-family: -apple-system, &amp;quot;SF UI Text&amp;quot;, Arial, &amp;quot;PingFang SC&amp;quot;, &amp;quot;Hiragino Sans GB&amp;quot;, &amp;quot;Microsoft YaHei&amp;quot;, &amp;quot;WenQuanYi Micro Hei&amp;quot;, sans-serif, SimHei, SimSun; background-color: rgb(255, 255, 255);&quot;&gt;③工作绩效信息&lt;/p&gt;&lt;p style=&quot;box-sizing: border-box; outline: 0px; margin: 0px; padding: 0px; font-size: 14px; color: rgb(79, 79, 79); overflow: auto hidden; line-height: 22px; overflow-wrap: break-word; text-align: left; font-family: -apple-system, &amp;quot;SF UI Text&amp;quot;, Arial, &amp;quot;PingFang SC&amp;quot;, &amp;quot;Hiragino Sans GB&amp;quot;, &amp;quot;Microsoft YaHei&amp;quot;, &amp;quot;WenQuanYi Micro Hei&amp;quot;, sans-serif, SimHei, SimSun; background-color: rgb(255, 255, 255);&quot;&gt;④项目文件更新&lt;/p&gt;" style="rounded=0;whiteSpace=wrap;html=1;" vertex="1" parent="1">
          <mxGeometry x="-440" y="170" width="120" height="140" as="geometry" />
        </mxCell>
        <mxCell id="_oG-GDEJj469WHXnoz0q-26" value="&lt;h4 style=&quot;box-sizing: border-box; outline: 0px; margin: 24px 0px 8px; padding: 0px; font-family: &amp;quot;PingFang SC&amp;quot;, &amp;quot;Microsoft YaHei&amp;quot;, SimHei, Arial, SimSun; font-size: 18px; color: rgb(79, 79, 79); line-height: 26px; overflow-wrap: break-word; text-align: start; background-color: rgb(255, 255, 255);&quot; id=&quot;5%E3%80%81%E7%A1%AE%E8%AE%A4%E8%8C%83%E5%9B%B4&quot;&gt;确认范围&lt;/h4&gt;" style="rounded=0;whiteSpace=wrap;html=1;" vertex="1" parent="1">
          <mxGeometry x="-800" y="170" width="120" height="140" as="geometry" />
        </mxCell>
        <mxCell id="_oG-GDEJj469WHXnoz0q-27" value="&lt;p style=&quot;box-sizing: border-box; outline: 0px; margin: 0px; padding: 0px; font-size: 14px; color: rgb(79, 79, 79); overflow: auto hidden; line-height: 22px; overflow-wrap: break-word; text-align: left; font-family: -apple-system, &amp;quot;SF UI Text&amp;quot;, Arial, &amp;quot;PingFang SC&amp;quot;, &amp;quot;Hiragino Sans GB&amp;quot;, &amp;quot;Microsoft YaHei&amp;quot;, &amp;quot;WenQuanYi Micro Hei&amp;quot;, sans-serif, SimHei, SimSun; background-color: rgb(255, 255, 255);&quot;&gt;①项目管理计划&lt;/p&gt;&lt;p style=&quot;box-sizing: border-box; outline: 0px; margin: 0px; padding: 0px; font-size: 14px; color: rgb(79, 79, 79); overflow: auto hidden; line-height: 22px; overflow-wrap: break-word; text-align: left; font-family: -apple-system, &amp;quot;SF UI Text&amp;quot;, Arial, &amp;quot;PingFang SC&amp;quot;, &amp;quot;Hiragino Sans GB&amp;quot;, &amp;quot;Microsoft YaHei&amp;quot;, &amp;quot;WenQuanYi Micro Hei&amp;quot;, sans-serif, SimHei, SimSun; background-color: rgb(255, 255, 255);&quot;&gt;②需求文件&lt;/p&gt;&lt;p style=&quot;box-sizing: border-box; outline: 0px; margin: 0px; padding: 0px; font-size: 14px; color: rgb(79, 79, 79); overflow: auto hidden; line-height: 22px; overflow-wrap: break-word; text-align: left; font-family: -apple-system, &amp;quot;SF UI Text&amp;quot;, Arial, &amp;quot;PingFang SC&amp;quot;, &amp;quot;Hiragino Sans GB&amp;quot;, &amp;quot;Microsoft YaHei&amp;quot;, &amp;quot;WenQuanYi Micro Hei&amp;quot;, sans-serif, SimHei, SimSun; background-color: rgb(255, 255, 255);&quot;&gt;③需求跟踪矩阵&lt;/p&gt;&lt;p style=&quot;box-sizing: border-box; outline: 0px; margin: 0px; padding: 0px; font-size: 14px; color: rgb(79, 79, 79); overflow: auto hidden; line-height: 22px; overflow-wrap: break-word; text-align: left; font-family: -apple-system, &amp;quot;SF UI Text&amp;quot;, Arial, &amp;quot;PingFang SC&amp;quot;, &amp;quot;Hiragino Sans GB&amp;quot;, &amp;quot;Microsoft YaHei&amp;quot;, &amp;quot;WenQuanYi Micro Hei&amp;quot;, sans-serif, SimHei, SimSun; background-color: rgb(255, 255, 255);&quot;&gt;④工作绩效数据&lt;/p&gt;&lt;p style=&quot;box-sizing: border-box; outline: 0px; margin: 0px; padding: 0px; font-size: 14px; color: rgb(79, 79, 79); overflow: auto hidden; line-height: 22px; overflow-wrap: break-word; text-align: left; font-family: -apple-system, &amp;quot;SF UI Text&amp;quot;, Arial, &amp;quot;PingFang SC&amp;quot;, &amp;quot;Hiragino Sans GB&amp;quot;, &amp;quot;Microsoft YaHei&amp;quot;, &amp;quot;WenQuanYi Micro Hei&amp;quot;, sans-serif, SimHei, SimSun; background-color: rgb(255, 255, 255);&quot;&gt;⑤组织过程资产&lt;/p&gt;" style="rounded=0;whiteSpace=wrap;html=1;" vertex="1" parent="1">
          <mxGeometry x="-680" y="310" width="120" height="160" as="geometry" />
        </mxCell>
        <mxCell id="_oG-GDEJj469WHXnoz0q-28" value="&lt;p style=&quot;box-sizing: border-box; outline: 0px; margin: 0px; padding: 0px; font-size: 14px; color: rgb(79, 79, 79); overflow: auto hidden; line-height: 22px; overflow-wrap: break-word; text-align: left; font-family: -apple-system, &amp;quot;SF UI Text&amp;quot;, Arial, &amp;quot;PingFang SC&amp;quot;, &amp;quot;Hiragino Sans GB&amp;quot;, &amp;quot;Microsoft YaHei&amp;quot;, &amp;quot;WenQuanYi Micro Hei&amp;quot;, sans-serif, SimHei, SimSun; background-color: rgb(255, 255, 255);&quot;&gt;①偏差分析&lt;br&gt;&lt;/p&gt;" style="rounded=0;whiteSpace=wrap;html=1;" vertex="1" parent="1">
          <mxGeometry x="-560" y="310" width="120" height="160" as="geometry" />
        </mxCell>
        <mxCell id="_oG-GDEJj469WHXnoz0q-29" value="&lt;p style=&quot;box-sizing: border-box; outline: 0px; margin: 0px; padding: 0px; font-size: 14px; color: rgb(79, 79, 79); overflow: auto hidden; line-height: 22px; overflow-wrap: break-word; text-align: left; font-family: -apple-system, &amp;quot;SF UI Text&amp;quot;, Arial, &amp;quot;PingFang SC&amp;quot;, &amp;quot;Hiragino Sans GB&amp;quot;, &amp;quot;Microsoft YaHei&amp;quot;, &amp;quot;WenQuanYi Micro Hei&amp;quot;, sans-serif, SimHei, SimSun; background-color: rgb(255, 255, 255);&quot;&gt;①工作绩效信息&lt;/p&gt;&lt;p style=&quot;box-sizing: border-box; outline: 0px; margin: 0px; padding: 0px; font-size: 14px; color: rgb(79, 79, 79); overflow: auto hidden; line-height: 22px; overflow-wrap: break-word; text-align: left; font-family: -apple-system, &amp;quot;SF UI Text&amp;quot;, Arial, &amp;quot;PingFang SC&amp;quot;, &amp;quot;Hiragino Sans GB&amp;quot;, &amp;quot;Microsoft YaHei&amp;quot;, &amp;quot;WenQuanYi Micro Hei&amp;quot;, sans-serif, SimHei, SimSun; background-color: rgb(255, 255, 255);&quot;&gt;②变更请求&lt;/p&gt;&lt;p style=&quot;box-sizing: border-box; outline: 0px; margin: 0px; padding: 0px; font-size: 14px; color: rgb(79, 79, 79); overflow: auto hidden; line-height: 22px; overflow-wrap: break-word; text-align: left; font-family: -apple-system, &amp;quot;SF UI Text&amp;quot;, Arial, &amp;quot;PingFang SC&amp;quot;, &amp;quot;Hiragino Sans GB&amp;quot;, &amp;quot;Microsoft YaHei&amp;quot;, &amp;quot;WenQuanYi Micro Hei&amp;quot;, sans-serif, SimHei, SimSun; background-color: rgb(255, 255, 255);&quot;&gt;③项目管理计划更新&lt;/p&gt;&lt;p style=&quot;box-sizing: border-box; outline: 0px; margin: 0px; padding: 0px; font-size: 14px; color: rgb(79, 79, 79); overflow: auto hidden; line-height: 22px; overflow-wrap: break-word; text-align: left; font-family: -apple-system, &amp;quot;SF UI Text&amp;quot;, Arial, &amp;quot;PingFang SC&amp;quot;, &amp;quot;Hiragino Sans GB&amp;quot;, &amp;quot;Microsoft YaHei&amp;quot;, &amp;quot;WenQuanYi Micro Hei&amp;quot;, sans-serif, SimHei, SimSun; background-color: rgb(255, 255, 255);&quot;&gt;④项目文件更新&lt;/p&gt;&lt;p style=&quot;box-sizing: border-box; outline: 0px; margin: 0px; padding: 0px; font-size: 14px; color: rgb(79, 79, 79); overflow: auto hidden; line-height: 22px; overflow-wrap: break-word; text-align: left; font-family: -apple-system, &amp;quot;SF UI Text&amp;quot;, Arial, &amp;quot;PingFang SC&amp;quot;, &amp;quot;Hiragino Sans GB&amp;quot;, &amp;quot;Microsoft YaHei&amp;quot;, &amp;quot;WenQuanYi Micro Hei&amp;quot;, sans-serif, SimHei, SimSun; background-color: rgb(255, 255, 255);&quot;&gt;⑤组织过程资产更新&lt;/p&gt;" style="rounded=0;whiteSpace=wrap;html=1;" vertex="1" parent="1">
          <mxGeometry x="-440" y="310" width="120" height="160" as="geometry" />
        </mxCell>
        <mxCell id="_oG-GDEJj469WHXnoz0q-30" value="&lt;h4 style=&quot;box-sizing: border-box; outline: 0px; margin: 24px 0px 8px; padding: 0px; font-family: &amp;quot;PingFang SC&amp;quot;, &amp;quot;Microsoft YaHei&amp;quot;, SimHei, Arial, SimSun; font-size: 18px; color: rgb(79, 79, 79); line-height: 26px; overflow-wrap: break-word; text-align: start; background-color: rgb(255, 255, 255);&quot; id=&quot;5%E3%80%81%E7%A1%AE%E8%AE%A4%E8%8C%83%E5%9B%B4&quot;&gt;控制范围&lt;/h4&gt;" style="rounded=0;whiteSpace=wrap;html=1;" vertex="1" parent="1">
          <mxGeometry x="-800" y="310" width="120" height="160" as="geometry" />
        </mxCell>
        <mxCell id="_oG-GDEJj469WHXnoz0q-31" value="&lt;p style=&quot;border-color: var(--border-color); color: rgb(79, 79, 79); font-family: -apple-system, &amp;quot;SF UI Text&amp;quot;, Arial, &amp;quot;PingFang SC&amp;quot;, &amp;quot;Hiragino Sans GB&amp;quot;, &amp;quot;Microsoft YaHei&amp;quot;, &amp;quot;WenQuanYi Micro Hei&amp;quot;, sans-serif, SimHei, SimSun; font-size: 14px; text-align: left; background-color: rgb(255, 255, 255); box-sizing: border-box; outline: 0px; margin: 0px; padding: 0px; overflow: auto hidden; line-height: 22px; overflow-wrap: break-word;&quot;&gt;规划过程组&lt;/p&gt;" style="rounded=0;whiteSpace=wrap;html=1;" vertex="1" parent="1">
          <mxGeometry x="-320" y="-380" width="120" height="110" as="geometry" />
        </mxCell>
        <mxCell id="_oG-GDEJj469WHXnoz0q-32" value="&lt;p style=&quot;box-sizing: border-box; outline: 0px; margin: 0px; padding: 0px; font-size: 14px; color: rgb(79, 79, 79); overflow: auto hidden; line-height: 22px; overflow-wrap: break-word; text-align: left; font-family: -apple-system, &amp;quot;SF UI Text&amp;quot;, Arial, &amp;quot;PingFang SC&amp;quot;, &amp;quot;Hiragino Sans GB&amp;quot;, &amp;quot;Microsoft YaHei&amp;quot;, &amp;quot;WenQuanYi Micro Hei&amp;quot;, sans-serif, SimHei, SimSun; background-color: rgb(255, 255, 255);&quot;&gt;规划过程组&lt;br&gt;&lt;/p&gt;" style="rounded=0;whiteSpace=wrap;html=1;" vertex="1" parent="1">
          <mxGeometry x="-320" y="-270" width="120" height="240" as="geometry" />
        </mxCell>
        <mxCell id="_oG-GDEJj469WHXnoz0q-33" value="&lt;p style=&quot;box-sizing: border-box; outline: 0px; margin: 0px; padding: 0px; font-size: 14px; color: rgb(79, 79, 79); overflow: auto hidden; line-height: 22px; overflow-wrap: break-word; text-align: left; font-family: -apple-system, &amp;quot;SF UI Text&amp;quot;, Arial, &amp;quot;PingFang SC&amp;quot;, &amp;quot;Hiragino Sans GB&amp;quot;, &amp;quot;Microsoft YaHei&amp;quot;, &amp;quot;WenQuanYi Micro Hei&amp;quot;, sans-serif, SimHei, SimSun; background-color: rgb(255, 255, 255);&quot;&gt;规划过程组&lt;br&gt;&lt;/p&gt;" style="rounded=0;whiteSpace=wrap;html=1;" vertex="1" parent="1">
          <mxGeometry x="-320" y="-30" width="120" height="90" as="geometry" />
        </mxCell>
        <mxCell id="_oG-GDEJj469WHXnoz0q-34" value="&lt;p style=&quot;box-sizing: border-box; outline: 0px; margin: 0px; padding: 0px; font-size: 14px; color: rgb(79, 79, 79); overflow: auto hidden; line-height: 22px; overflow-wrap: break-word; text-align: left; font-family: -apple-system, &amp;quot;SF UI Text&amp;quot;, Arial, &amp;quot;PingFang SC&amp;quot;, &amp;quot;Hiragino Sans GB&amp;quot;, &amp;quot;Microsoft YaHei&amp;quot;, &amp;quot;WenQuanYi Micro Hei&amp;quot;, sans-serif, SimHei, SimSun; background-color: rgb(255, 255, 255);&quot;&gt;规划过程组&lt;br&gt;&lt;/p&gt;" style="rounded=0;whiteSpace=wrap;html=1;" vertex="1" parent="1">
          <mxGeometry x="-320" y="60" width="120" height="110" as="geometry" />
        </mxCell>
        <mxCell id="_oG-GDEJj469WHXnoz0q-35" value="&lt;p style=&quot;box-sizing: border-box; outline: 0px; margin: 0px; padding: 0px; font-size: 14px; color: rgb(79, 79, 79); overflow: auto hidden; line-height: 22px; overflow-wrap: break-word; text-align: left; font-family: -apple-system, &amp;quot;SF UI Text&amp;quot;, Arial, &amp;quot;PingFang SC&amp;quot;, &amp;quot;Hiragino Sans GB&amp;quot;, &amp;quot;Microsoft YaHei&amp;quot;, &amp;quot;WenQuanYi Micro Hei&amp;quot;, sans-serif, SimHei, SimSun; background-color: rgb(255, 255, 255);&quot;&gt;监控过程组&lt;/p&gt;" style="rounded=0;whiteSpace=wrap;html=1;" vertex="1" parent="1">
          <mxGeometry x="-320" y="170" width="120" height="140" as="geometry" />
        </mxCell>
        <mxCell id="_oG-GDEJj469WHXnoz0q-36" value="&lt;p style=&quot;box-sizing: border-box; outline: 0px; margin: 0px; padding: 0px; font-size: 14px; color: rgb(79, 79, 79); overflow: auto hidden; line-height: 22px; overflow-wrap: break-word; text-align: left; font-family: -apple-system, &amp;quot;SF UI Text&amp;quot;, Arial, &amp;quot;PingFang SC&amp;quot;, &amp;quot;Hiragino Sans GB&amp;quot;, &amp;quot;Microsoft YaHei&amp;quot;, &amp;quot;WenQuanYi Micro Hei&amp;quot;, sans-serif, SimHei, SimSun; background-color: rgb(255, 255, 255);&quot;&gt;监控过程组&lt;br&gt;&lt;/p&gt;" style="rounded=0;whiteSpace=wrap;html=1;" vertex="1" parent="1">
          <mxGeometry x="-320" y="310" width="120" height="160" as="geometry" />
        </mxCell>
        <mxCell id="_oG-GDEJj469WHXnoz0q-37" value="&lt;font style=&quot;font-size: 20px;&quot;&gt;&lt;b&gt;范围管理&lt;br&gt;(6)&lt;/b&gt;&lt;/font&gt;" style="rounded=0;whiteSpace=wrap;html=1;" vertex="1" parent="1">
          <mxGeometry x="-920" y="-380" width="120" height="850" as="geometry" />
        </mxCell>
      </root>
    </mxGraphModel>
  </diagram>
</mxfile>
